#!OML:ASF F:\VICON\USERDATA\INSTALL\rory3\rory3.ASF
:FULLY-SPECIFIED
:DEGREES
132
root -0.463067 18.0429 41.5765 0.302546 -6.92642 1.31716
lowerback 12.3156 -1.60069 -0.538577
upperback 1.34208 -2.22293 -0.413626
thorax -5.49018 -1.08586 0.243676
lowerneck -4.30016 2.22149 -2.39324
upperneck -5.4837 3.04775 0.33541
head -1.01341 1.56213 0.505342
rclavicle 7.73707e-015 9.49197e-015
rhumerus -57.5685 11.0106 -87.4335
rradius 94.1577
rwrist -6.96878
rhand -44.6389 35.6132
rfingers 7.12502
rthumb -17.4362 6.37517
lclavicle 7.73707e-015 9.49197e-015
lhumerus -37.0206 -17.6304 91.996
lradius 114.079
lwrist 20.2669
lhand -38.78 6.50318
lfingers 7.12502
lthumb -11.7915 36.1512
rfemur -21.6351 2.10634 23.6258
rtibia 22.993
rfoot 5.22894 2.03728
rtoes 14.9016
lfemur 9.88788 6.84659 -25.2554
ltibia 80.0702
lfoot 29.2477 2.60741
ltoes -8.19726
133
root -0.481884 17.9045 42.0849 -0.326958 -6.64236 1.1373
lowerback 12.8657 -1.56293 -0.355928
upperback 1.0477 -2.15297 -0.40638
thorax -6.11423 -1.05129 0.158393
lowerneck -2.63234 2.08047 -2.53692
upperneck -5.49096 2.83707 0.736592
head -1.30136 1.45439 0.636592
rclavicle -2.30466e-015 2.13694e-015
rhumerus -57.1518 11.2554 -87.6513
rradius 95.1581
rwrist -6.4976
rhand -44.6882 34.5713
rfingers 7.12502
rthumb -17.4836 5.33754
lclavicle -2.30466e-015 2.13694e-015
lhumerus -39.4782 -16.8417 92.346
lradius 112.698
lwrist 20.844
lhand -38.8188 6.38295
lfingers 7.12502
lthumb -11.8289 36.0289
rfemur -20.4631 2.44154 23.931
rtibia 26.0761
rfoot 0.711734 0.959208
rtoes 17.1365
lfemur 8.25343 7.75728 -23.7491
ltibia 85.1937
lfoot 28.1439 3.88034
ltoes -5.77475
134
root -0.506299 17.7787 42.5673 -0.531781 -6.56149 0.453348
lowerback 13.2672 -1.4915 0.0991323
upperback 1.33403 -1.97623 -0.166528
thorax -6.04144 -0.973561 0.128834
lowerneck -3.38295 1.97254 -2.54814
upperneck -5.24469 2.71483 0.797997
head -1.09691 1.39275 0.665776
rclavicle -4.24902e-015 -5.34234e-015
rhumerus -54.818 11.5828 -87.5225
rradius 95.9081
rwrist -6.1514
rhand -44.521 34.2217
rfingers 7.12502
rthumb -17.3227 4.97365
lclavicle -4.24902e-015 -5.34234e-015
lhumerus -40.012 -15.9475 92.1168
lradius 110.939
lwrist 21.3963
lhand -38.4939 6.27077
lfingers 7.12502
lthumb -11.5156 35.9345
rfemur -19.9948 3.33169 24.9247
rtibia 29.0567
rfoot -2.75008 -1.34592
rtoes 12.2321
lfemur 5.92646 8.84553 -21.497
ltibia 90.2298
lfoot 27.4594 4.20716
ltoes -4.21643
135
root -0.526956 17.6679 43.0666 -1.06402 -6.42423 0.137421
lowerback 13.9974 -1.42274 0.231683
upperback 1.43162 -1.85354 -0.0180861
thorax -6.34226 -0.913505 0.205764
lowerneck -2.76251 1.97542 -2.727
upperneck -6.01479 2.71297 0.970358
head -1.45038 1.3963 0.741746
rclavicle -1.06552e-014 7.01958e-015
rhumerus -52.8231 11.967 -87.4518
rradius 96.317
rwrist -5.64957
rhand -44.4645 34.7805
rfingers 7.12502
rthumb -17.2683 5.52771
lclavicle -1.06552e-014 7.01958e-015
lhumerus -41.2177 -14.9358 92.1034
lradius 109.327
lwrist 21.9442
lhand -38.3321 6.95145
lfingers 7.12502
lthumb -11.3596 36.6238
rfemur -18.8926 3.64246 25.5715
rtibia 31.4504
rfoot -5.58982 -3.30648
rtoes 9.92414
lfemur 4.09382 9.78836 -19.7579
ltibia 94.7632
lfoot 26.8113 3.27768
ltoes -5.23686
136
root -0.547379 17.5711 43.5617 -1.53604 -6.26205 -0.569424
lowerback 14.7664 -1.39492 0.80368
upperback 1.46207 -1.70396 0.215224
thorax -6.74572 -0.851375 0.11938
lowerneck -3.23461 2.21799 -1.64062
upperneck -5.33665 2.98165 -0.246279
head -1.11986 1.52044 0.191878
rclavicle -1.96143e-014 1.53437e-015
rhumerus -51.0178 12.206 -87.4007
rradius 96.9688
rwrist -5.12488
rhand -44.4609 34.8885
rfingers 7.12502
rthumb -17.2649 5.63545
lclavicle -1.96143e-014 1.53437e-015
lhumerus -42.6382 -13.8651 92.1215
lradius 107.877
lwrist 22.5192
lhand -38.3644 9.08484
lfingers 7.12502
lthumb -11.3907 38.7555
rfemur -17.3669 3.63394 26.6079
rtibia 33.3009
rfoot -8.28552 -4.52114
rtoes 10.5153
lfemur 2.12025 10.4905 -17.6835
ltibia 99.1129
lfoot 26.0995 2.04483
ltoes -3.65586
137
root -0.568224 17.4797 44.0057 -1.16517 -6.42945 -3.21836
lowerback 14.4271 -1.36029 3.31399
upperback 2.04733 -1.22829 0.946942
thorax -5.9681 -0.666445 -0.635727
lowerneck -3.26516 2.33293 -1.45739
upperneck -6.57823 3.11379 -0.494677
head -1.49916 1.5929 0.0768089
rclavicle -1.24322e-014 1.12764e-014
rhumerus -47.6727 12.1922 -87.0194
rradius 97.603
rwrist -4.88091
rhand -44.5791 34.4739
rfingers 7.12502
rthumb -17.3786 5.23086
lclavicle -1.24322e-014 1.12764e-014
lhumerus -42.5005 -13.11 91.7455
lradius 106.123
lwrist 23.3105
lhand -38.4213 10.4515
lfingers 7.12502
lthumb -11.4456 40.1191
rfemur -16.5208 4.13626 29.7253
rtibia 34.7676
rfoot -10.1343 -5.61572
rtoes 8.90677
lfemur -1.12725 11.5628 -13.0485
ltibia 103.616
lfoot 25.7952 -0.166934
ltoes -2.40351
138
root -0.580005 17.369 44.3975 -0.198441 -6.70376 -6.62567
lowerback 15.5953 -1.45454 6.2257
upperback 1.59727 -0.70204 2.10421
thorax -7.09784 -0.49491 -1.12491
lowerneck -4.05468 2.34882 -1.37726
upperneck -6.34723 3.12409 -1.0307
head -1.28224 1.59991 -0.0885257
rclavicle 1.13866e-014 -1.85864e-014
rhumerus -45.2627 12.9518 -86.6795
rradius 98.2061
rwrist -5.18724
rhand -44.2114 34.4875
rfingers 7.12502
rthumb -17.0247 5.21354
lclavicle 1.13866e-014 -1.85864e-014
lhumerus -43.5267 -11.7478 91.8042
lradius 104.415
lwrist 24.0001
lhand -38.3628 10.7849
lfingers 7.12502
lthumb -11.3892 40.4556
rfemur -16.3269 4.91683 33.5373
rtibia 35.9033
rfoot -11.276 -6.61329
rtoes 5.67015
lfemur -5.49138 13.065 -7.27991
ltibia 108.191
lfoot 25.7991 -3.14151
ltoes -3.55413
